<svg width="1349" height="711" xmlns="http://www.w3.org/2000/svg"><g><path d="M-41.48426974425092,-19.569808475207537L-94.58957421127707,230.00678106211126L-45.193780071567744,54.61170913185924Z" fill="#794815" stroke="#794815"></path><path d="M-41.48426974425092,-19.569808475207537L-45.193780071567744,54.61170913185924L9.630858078598976,-17.41604194045067Z" fill="#5a3314" stroke="#5a3314"></path><path d="M-41.48426974425092,-19.569808475207537L9.630858078598976,-17.41604194045067L183.62188948551193,-109.2851508106105Z" fill="#502d15" stroke="#502d15"></path><path d="M9.630858078598976,-17.41604194045067L-45.193780071567744,54.61170913185924L60.99910374497995,129.04251703992486Z" fill="#784514" stroke="#784514"></path><path d="M9.630858078598976,-17.41604194045067L60.99910374497995,129.04251703992486L107.4856318696402,19.9613862298429Z" fill="#7d4815" stroke="#7d4815"></path><path d="M9.630858078598976,-17.41604194045067L107.4856318696402,19.9613862298429L115.02752635395154,14.08416866324842Z" fill="#6f4016" stroke="#6f4016"></path><path d="M9.630858078598976,-17.41604194045067L115.02752635395154,14.08416866324842L183.62188948551193,-109.2851508106105Z" fill="#603716" stroke="#603716"></path><path d="M183.62188948551193,-109.2851508106105L115.02752635395154,14.08416866324842L288.60572510398924,75.00293317483738Z" fill="#814e1f" stroke="#814e1f"></path><path d="M183.62188948551193,-109.2851508106105L288.60572510398924,75.00293317483738L295.5430105747655,-107.03606351744384Z" fill="#794e26" stroke="#794e26"></path><path d="M183.62188948551193,-109.2851508106105L295.5430105747655,-107.03606351744384L1165.4169625835493,-107.69580126274377Z" fill="#7a7474" stroke="#7a7474"></path><path d="M295.5430105747655,-107.03606351744384L288.60572510398924,75.00293317483738L364.71523333340883,-39.33236446464434Z" fill="#8c6236" stroke="#8c6236"></path><path d="M295.5430105747655,-107.03606351744384L364.71523333340883,-39.33236446464434L454.2810847098008,-64.62891548173502Z" fill="#7d6246" stroke="#7d6246"></path><path d="M295.5430105747655,-107.03606351744384L454.2810847098008,-64.62891548173502L663.4814947261475,-53.60134792979807Z" fill="#847361" stroke="#847361"></path><path d="M295.5430105747655,-107.03606351744384L663.4814947261475,-53.60134792979807L908.1985059590079,-62.00136419851333Z" fill="#7c7d7e" stroke="#7c7d7e"></path><path d="M295.5430105747655,-107.03606351744384L908.1985059590079,-62.00136419851333L1165.4169625835493,-107.69580126274377Z" fill="#4c6c75" stroke="#4c6c75"></path><path d="M364.71523333340883,-39.33236446464434L288.60572510398924,75.00293317483738L375.95184066332877,60.579962776973844Z" fill="#a9783e" stroke="#a9783e"></path><path d="M364.71523333340883,-39.33236446464434L375.95184066332877,60.579962776973844L454.2810847098008,-64.62891548173502Z" fill="#9a784e" stroke="#9a784e"></path><path d="M454.2810847098008,-64.62891548173502L375.95184066332877,60.579962776973844L486.96541724493727,101.61595275392756Z" fill="#b48c59" stroke="#b48c59"></path><path d="M454.2810847098008,-64.62891548173502L486.96541724493727,101.61595275392756L562.6577992504463,95.50770146539435Z" fill="#bf9769" stroke="#bf9769"></path><path d="M454.2810847098008,-64.62891548173502L562.6577992504463,95.50770146539435L651.6132938838564,-18.457215977832675Z" fill="#ac9275" stroke="#ac9275"></path><path d="M454.2810847098008,-64.62891548173502L651.6132938838564,-18.457215977832675L663.4814947261475,-53.60134792979807Z" fill="#8f857a" stroke="#8f857a"></path><path d="M651.6132938838564,-18.457215977832675L562.6577992504463,95.50770146539435L625.674757771194,110.72888547554612Z" fill="#bea27d" stroke="#bea27d"></path><path d="M651.6132938838564,-18.457215977832675L625.674757771194,110.72888547554612L702.6933761825785,13.946320659015328Z" fill="#a99b82" stroke="#a99b82"></path><path d="M651.6132938838564,-18.457215977832675L702.6933761825785,13.946320659015328L663.4814947261475,-53.60134792979807Z" fill="#8d8c84" stroke="#8d8c84"></path><path d="M663.4814947261475,-53.60134792979807L702.6933761825785,13.946320659015328L854.6007671579719,-32.82569710863754Z" fill="#79847b" stroke="#79847b"></path><path d="M663.4814947261475,-53.60134792979807L854.6007671579719,-32.82569710863754L908.1985059590079,-62.00136419851333Z" fill="#5b7672" stroke="#5b7672"></path><path d="M854.6007671579719,-32.82569710863754L702.6933761825785,13.946320659015328L833.4476655325852,63.46658454975113Z" fill="#7d8974" stroke="#7d8974"></path><path d="M854.6007671579719,-32.82569710863754L833.4476655325852,63.46658454975113L885.316134924069,21.56295998254791Z" fill="#6d7f69" stroke="#6d7f69"></path><path d="M854.6007671579719,-32.82569710863754L885.316134924069,21.56295998254791L908.1985059590079,-62.00136419851333Z" fill="#526e65" stroke="#526e65"></path><path d="M908.1985059590079,-62.00136419851333L885.316134924069,21.56295998254791L1025.0207682535984,-54.72141833277419Z" fill="#3f615a" stroke="#3f615a"></path><path d="M908.1985059590079,-62.00136419851333L1025.0207682535984,-54.72141833277419L1165.4169625835493,-107.69580126274377Z" fill="#194449" stroke="#194449"></path><path d="M1025.0207682535984,-54.72141833277419L885.316134924069,21.56295998254791L1076.3157930085436,62.83885520417243Z" fill="#476150" stroke="#476150"></path><path d="M1025.0207682535984,-54.72141833277419L1076.3157930085436,62.83885520417243L1165.4169625835493,-107.69580126274377Z" fill="#23453f" stroke="#23453f"></path><path d="M1165.4169625835493,-107.69580126274377L1076.3157930085436,62.83885520417243L1214.9389604409225,57.449061926454306Z" fill="#344534" stroke="#344534"></path><path d="M1165.4169625835493,-107.69580126274377L1214.9389604409225,57.449061926454306L1288.3369466662407,-0.6748355459421873Z" fill="#2a3528" stroke="#2a3528"></path><path d="M1165.4169625835493,-107.69580126274377L1288.3369466662407,-0.6748355459421873L1411.5795190259814,-89.6136270579882Z" fill="#131d1d" stroke="#131d1d"></path><path d="M1288.3369466662407,-0.6748355459421873L1214.9389604409225,57.449061926454306L1354.8181081656367,86.76728011341766Z" fill="#493d1d" stroke="#493d1d"></path><path d="M1288.3369466662407,-0.6748355459421873L1354.8181081656367,86.76728011341766L1411.5795190259814,-89.6136270579882Z" fill="#322512" stroke="#322512"></path><path d="M1411.5795190259814,-89.6136270579882L1354.8181081656367,86.76728011341766L1490.2619607537054,-67.58138744393364Z" fill="#271612" stroke="#271612"></path><path d="M1490.2619607537054,-67.58138744393364L1354.8181081656367,86.76728011341766L1496.9332765694708,96.65706971427426Z" fill="#442712" stroke="#442712"></path><path d="M-45.193780071567744,54.61170913185924L-94.58957421127707,230.00678106211126L-52.797407512553036,171.80903537897393Z" fill="#916323" stroke="#916323"></path><path d="M-45.193780071567744,54.61170913185924L-52.797407512553036,171.80903537897393L60.99910374497995,129.04251703992486Z" fill="#905a1a" stroke="#905a1a"></path><path d="M107.4856318696402,19.9613862298429L60.99910374497995,129.04251703992486L155.234777755104,148.6204029317014Z" fill="#a0611a" stroke="#a0611a"></path><path d="M107.4856318696402,19.9613862298429L155.234777755104,148.6204029317014L115.02752635395154,14.08416866324842Z" fill="#935517" stroke="#935517"></path><path d="M115.02752635395154,14.08416866324842L155.234777755104,148.6204029317014L288.60572510398924,75.00293317483738Z" fill="#a7651e" stroke="#a7651e"></path><path d="M288.60572510398924,75.00293317483738L155.234777755104,148.6204029317014L282.99479321110994,179.94938041782007Z" fill="#c9862d" stroke="#c9862d"></path><path d="M288.60572510398924,75.00293317483738L282.99479321110994,179.94938041782007L375.95184066332877,60.579962776973844Z" fill="#c78a3a" stroke="#c78a3a"></path><path d="M375.95184066332877,60.579962776973844L282.99479321110994,179.94938041782007L425.13910392299294,161.79982533445582Z" fill="#d9a04b" stroke="#d9a04b"></path><path d="M375.95184066332877,60.579962776973844L425.13910392299294,161.79982533445582L486.96541724493727,101.61595275392756Z" fill="#d5a45b" stroke="#d5a45b"></path><path d="M486.96541724493727,101.61595275392756L425.13910392299294,161.79982533445582L442.6474099047482,202.01855903025717Z" fill="#e8bc6e" stroke="#e8bc6e"></path><path d="M486.96541724493727,101.61595275392756L442.6474099047482,202.01855903025717L562.6577992504463,95.50770146539435Z" fill="#e6b870" stroke="#e6b870"></path><path d="M562.6577992504463,95.50770146539435L442.6474099047482,202.01855903025717L587.559750652872,269.19615611666813Z" fill="#f6da9a" stroke="#f6da9a"></path><path d="M562.6577992504463,95.50770146539435L587.559750652872,269.19615611666813L625.674757771194,110.72888547554612Z" fill="#e7cb8e" stroke="#e7cb8e"></path><path d="M702.6933761825785,13.946320659015328L625.674757771194,110.72888547554612L682.152100445237,180.42665184708312Z" fill="#c5b288" stroke="#c5b288"></path><path d="M702.6933761825785,13.946320659015328L682.152100445237,180.42665184708312L833.4476655325852,63.46658454975113Z" fill="#ada47e" stroke="#ada47e"></path><path d="M833.4476655325852,63.46658454975113L682.152100445237,180.42665184708312L874.208217561245,215.31281044939533Z" fill="#b8bb84" stroke="#b8bb84"></path><path d="M833.4476655325852,63.46658454975113L874.208217561245,215.31281044939533L936.0027974727564,134.72702740458772Z" fill="#9ca36d" stroke="#9ca36d"></path><path d="M833.4476655325852,63.46658454975113L936.0027974727564,134.72702740458772L885.316134924069,21.56295998254791Z" fill="#808965" stroke="#808965"></path><path d="M885.316134924069,21.56295998254791L936.0027974727564,134.72702740458772L1076.3157930085436,62.83885520417243Z" fill="#6b7955" stroke="#6b7955"></path><path d="M1076.3157930085436,62.83885520417243L936.0027974727564,134.72702740458772L1044.5748724765144,191.5551685122773Z" fill="#798653" stroke="#798653"></path><path d="M1076.3157930085436,62.83885520417243L1044.5748724765144,191.5551685122773L1200.1543152797967,178.8597796834074Z" fill="#737d47" stroke="#737d47"></path><path d="M1076.3157930085436,62.83885520417243L1200.1543152797967,178.8597796834074L1190.8798580197617,87.77425377629697Z" fill="#646739" stroke="#646739"></path><path d="M1076.3157930085436,62.83885520417243L1190.8798580197617,87.77425377629697L1214.9389604409225,57.449061926454306Z" fill="#535633" stroke="#535633"></path><path d="M1190.8798580197617,87.77425377629697L1200.1543152797967,178.8597796834074L1210.2666712016799,135.1595297991298Z" fill="#6f6a34" stroke="#6f6a34"></path><path d="M1190.8798580197617,87.77425377629697L1210.2666712016799,135.1595297991298L1214.9389604409225,57.449061926454306Z" fill="#5d592e" stroke="#5d592e"></path><path d="M1214.9389604409225,57.449061926454306L1210.2666712016799,135.1595297991298L1354.8181081656367,86.76728011341766Z" fill="#5d5025" stroke="#5d5025"></path><path d="M1354.8181081656367,86.76728011341766L1210.2666712016799,135.1595297991298L1352.054184912704,193.91665560891852Z" fill="#715b23" stroke="#715b23"></path><path d="M1354.8181081656367,86.76728011341766L1352.054184912704,193.91665560891852L1447.444029764738,192.52111219568178Z" fill="#755925" stroke="#755925"></path><path d="M1354.8181081656367,86.76728011341766L1447.444029764738,192.52111219568178L1496.9332765694708,96.65706971427426Z" fill="#6b4619" stroke="#6b4619"></path><path d="M1496.9332765694708,96.65706971427426L1447.444029764738,192.52111219568178L1486.212886190042,315.87950309272856Z" fill="#7e6d43" stroke="#7e6d43"></path><path d="M1496.9332765694708,96.65706971427426L1486.212886190042,315.87950309272856L1499.9540483974852,614.9460340407677Z" fill="#78807e" stroke="#78807e"></path><path d="M-52.797407512553036,171.80903537897393L-94.58957421127707,230.00678106211126L11.886070126201957,261.4770395774394Z" fill="#a08851" stroke="#a08851"></path><path d="M-52.797407512553036,171.80903537897393L11.886070126201957,261.4770395774394L60.99910374497995,129.04251703992486Z" fill="#a67f3c" stroke="#a67f3c"></path><path d="M60.99910374497995,129.04251703992486L11.886070126201957,261.4770395774394L155.234777755104,148.6204029317014Z" fill="#b38338" stroke="#b38338"></path><path d="M155.234777755104,148.6204029317014L11.886070126201957,261.4770395774394L115.09913187939674,318.2496944698505Z" fill="#bd9c60" stroke="#bd9c60"></path><path d="M155.234777755104,148.6204029317014L115.09913187939674,318.2496944698505L282.99479321110994,179.94938041782007Z" fill="#cfa658" stroke="#cfa658"></path><path d="M282.99479321110994,179.94938041782007L115.09913187939674,318.2496944698505L326.3832035777159,262.19898864859715Z" fill="#dab675" stroke="#dab675"></path><path d="M282.99479321110994,179.94938041782007L326.3832035777159,262.19898864859715L425.13910392299294,161.79982533445582Z" fill="#e6c070" stroke="#e6c070"></path><path d="M425.13910392299294,161.79982533445582L326.3832035777159,262.19898864859715L442.6474099047482,202.01855903025717Z" fill="#edd184" stroke="#edd184"></path><path d="M442.6474099047482,202.01855903025717L326.3832035777159,262.19898864859715L349.815571680665,288.48100746050477Z" fill="#ebd496" stroke="#ebd496"></path><path d="M442.6474099047482,202.01855903025717L349.815571680665,288.48100746050477L446.6232763370499,373.95141183864325Z" fill="#efe2b6" stroke="#efe2b6"></path><path d="M442.6474099047482,202.01855903025717L446.6232763370499,373.95141183864325L526.304306180682,301.22697866987437Z" fill="#f4eac6" stroke="#f4eac6"></path><path d="M442.6474099047482,202.01855903025717L526.304306180682,301.22697866987437L587.559750652872,269.19615611666813Z" fill="#f9ecc1" stroke="#f9ecc1"></path><path d="M625.674757771194,110.72888547554612L587.559750652872,269.19615611666813L682.152100445237,180.42665184708312Z" fill="#e6daa6" stroke="#e6daa6"></path><path d="M682.152100445237,180.42665184708312L587.559750652872,269.19615611666813L706.4554845308885,234.5710940938443Z" fill="#e6ebc4" stroke="#e6ebc4"></path><path d="M682.152100445237,180.42665184708312L706.4554845308885,234.5710940938443L874.208217561245,215.31281044939533Z" fill="#cedfb1" stroke="#cedfb1"></path><path d="M874.208217561245,215.31281044939533L706.4554845308885,234.5710940938443L834.6389241237193,279.78516029194Z" fill="#c1e0bd" stroke="#c1e0bd"></path><path d="M874.208217561245,215.31281044939533L834.6389241237193,279.78516029194L914.3004758283496,320.8666209015064Z" fill="#aed7c2" stroke="#aed7c2"></path><path d="M874.208217561245,215.31281044939533L914.3004758283496,320.8666209015064L976.4798398478888,330.22485254565254Z" fill="#a0d0c1" stroke="#a0d0c1"></path><path d="M874.208217561245,215.31281044939533L976.4798398478888,330.22485254565254L1044.5748724765144,191.5551685122773Z" fill="#96c1a1" stroke="#96c1a1"></path><path d="M874.208217561245,215.31281044939533L1044.5748724765144,191.5551685122773L936.0027974727564,134.72702740458772Z" fill="#93ac7b" stroke="#93ac7b"></path><path d="M1044.5748724765144,191.5551685122773L976.4798398478888,330.22485254565254L1070.028078823816,252.79412955744192Z" fill="#8ab79d" stroke="#8ab79d"></path><path d="M1044.5748724765144,191.5551685122773L1070.028078823816,252.79412955744192L1200.1543152797967,178.8597796834074Z" fill="#7fa071" stroke="#7fa071"></path><path d="M1200.1543152797967,178.8597796834074L1070.028078823816,252.79412955744192L1194.9618795374408,310.35503754392266Z" fill="#80a081" stroke="#80a081"></path><path d="M1200.1543152797967,178.8597796834074L1194.9618795374408,310.35503754392266L1276.8249904643744,224.73790006479248Z" fill="#809470" stroke="#809470"></path><path d="M1200.1543152797967,178.8597796834074L1276.8249904643744,224.73790006479248L1210.2666712016799,135.1595297991298Z" fill="#797d49" stroke="#797d49"></path><path d="M1210.2666712016799,135.1595297991298L1276.8249904643744,224.73790006479248L1352.054184912704,193.91665560891852Z" fill="#7a7844" stroke="#7a7844"></path><path d="M1352.054184912704,193.91665560891852L1276.8249904643744,224.73790006479248L1321.1331699532457,243.99314410053194Z" fill="#808356" stroke="#808356"></path><path d="M1352.054184912704,193.91665560891852L1321.1331699532457,243.99314410053194L1430.0419810321182,332.04540656646714Z" fill="#808164" stroke="#808164"></path><path d="M1352.054184912704,193.91665560891852L1430.0419810321182,332.04540656646714L1447.444029764738,192.52111219568178Z" fill="#80785a" stroke="#80785a"></path><path d="M1447.444029764738,192.52111219568178L1430.0419810321182,332.04540656646714L1486.212886190042,315.87950309272856Z" fill="#807f72" stroke="#807f72"></path><path d="M-94.58957421127707,230.00678106211126L-75.42335660662502,864.9132227734663L-61.87099512433633,565.2089762734249Z" fill="#2f5240" stroke="#2f5240"></path><path d="M-94.58957421127707,230.00678106211126L-61.87099512433633,565.2089762734249L-66.28556843381375,432.4589740228839Z" fill="#718b77" stroke="#718b77"></path><path d="M-94.58957421127707,230.00678106211126L-66.28556843381375,432.4589740228839L11.886070126201957,261.4770395774394Z" fill="#9c927a" stroke="#9c927a"></path><path d="M11.886070126201957,261.4770395774394L-66.28556843381375,432.4589740228839L39.076282361056656,360.689875590615Z" fill="#a09782" stroke="#a09782"></path><path d="M11.886070126201957,261.4770395774394L39.076282361056656,360.689875590615L115.09913187939674,318.2496944698505Z" fill="#b29f7d" stroke="#b29f7d"></path><path d="M115.09913187939674,318.2496944698505L39.076282361056656,360.689875590615L122.58093402022496,424.88303278107196Z" fill="#aca282" stroke="#aca282"></path><path d="M115.09913187939674,318.2496944698505L122.58093402022496,424.88303278107196L293.19820523960516,412.35761985881254Z" fill="#b3ae85" stroke="#b3ae85"></path><path d="M115.09913187939674,318.2496944698505L293.19820523960516,412.35761985881254L326.3832035777159,262.19898864859715Z" fill="#d5bc8f" stroke="#d5bc8f"></path><path d="M326.3832035777159,262.19898864859715L293.19820523960516,412.35761985881254L349.815571680665,288.48100746050477Z" fill="#e1cda1" stroke="#e1cda1"></path><path d="M349.815571680665,288.48100746050477L293.19820523960516,412.35761985881254L355.90590169420466,393.37178480345756Z" fill="#d8cfa7" stroke="#d8cfa7"></path><path d="M349.815571680665,288.48100746050477L355.90590169420466,393.37178480345756L446.6232763370499,373.95141183864325Z" fill="#e4dcb8" stroke="#e4dcb8"></path><path d="M526.304306180682,301.22697866987437L446.6232763370499,373.95141183864325L552.1301532094367,433.2767006312497Z" fill="#e7eed7" stroke="#e7eed7"></path><path d="M526.304306180682,301.22697866987437L552.1301532094367,433.2767006312497L587.559750652872,269.19615611666813Z" fill="#f2f4e0" stroke="#f2f4e0"></path><path d="M587.559750652872,269.19615611666813L552.1301532094367,433.2767006312497L664.0752297407016,436.4011271321215Z" fill="#d9f3e5" stroke="#d9f3e5"></path><path d="M587.559750652872,269.19615611666813L664.0752297407016,436.4011271321215L706.4554845308885,234.5710940938443Z" fill="#e4f5e9" stroke="#e4f5e9"></path><path d="M706.4554845308885,234.5710940938443L664.0752297407016,436.4011271321215L834.6389241237193,279.78516029194Z" fill="#cfeee4" stroke="#cfeee4"></path><path d="M834.6389241237193,279.78516029194L664.0752297407016,436.4011271321215L837.3254894348793,444.7274674777873Z" fill="#ace8df" stroke="#ace8df"></path><path d="M834.6389241237193,279.78516029194L837.3254894348793,444.7274674777873L872.6469810004346,411.6625590645708Z" fill="#9eddd5" stroke="#9eddd5"></path><path d="M834.6389241237193,279.78516029194L872.6469810004346,411.6625590645708L914.3004758283496,320.8666209015064Z" fill="#a7d9d1" stroke="#a7d9d1"></path><path d="M914.3004758283496,320.8666209015064L872.6469810004346,411.6625590645708L976.4798398478888,330.22485254565254Z" fill="#98d0cc" stroke="#98d0cc"></path><path d="M1070.028078823816,252.79412955744192L976.4798398478888,330.22485254565254L1026.0951527347788,421.1565569951199Z" fill="#84bdb6" stroke="#84bdb6"></path><path d="M1070.028078823816,252.79412955744192L1026.0951527347788,421.1565569951199L1180.9697533003055,406.3077450799756Z" fill="#75b0ac" stroke="#75b0ac"></path><path d="M1070.028078823816,252.79412955744192L1180.9697533003055,406.3077450799756L1194.9618795374408,310.35503754392266Z" fill="#7ba89e" stroke="#7ba89e"></path><path d="M1194.9618795374408,310.35503754392266L1180.9697533003055,406.3077450799756L1220.4741054959595,335.9694712352939Z" fill="#77a09a" stroke="#77a09a"></path><path d="M1194.9618795374408,310.35503754392266L1220.4741054959595,335.9694712352939L1276.8249904643744,224.73790006479248Z" fill="#7f9b8b" stroke="#7f9b8b"></path><path d="M1276.8249904643744,224.73790006479248L1220.4741054959595,335.9694712352939L1321.1331699532457,243.99314410053194Z" fill="#809279" stroke="#809279"></path><path d="M1321.1331699532457,243.99314410053194L1220.4741054959595,335.9694712352939L1377.6592807238922,348.9318875968456Z" fill="#7d8f81" stroke="#7d8f81"></path><path d="M1321.1331699532457,243.99314410053194L1377.6592807238922,348.9318875968456L1430.0419810321182,332.04540656646714Z" fill="#7d8578" stroke="#7d8578"></path><path d="M1486.212886190042,315.87950309272856L1430.0419810321182,332.04540656646714L1462.3353633168153,496.46197631256655Z" fill="#677e7b" stroke="#677e7b"></path><path d="M1486.212886190042,315.87950309272856L1462.3353633168153,496.46197631256655L1499.9540483974852,614.9460340407677Z" fill="#2d645f" stroke="#2d645f"></path><path d="M-66.28556843381375,432.4589740228839L-61.87099512433633,565.2089762734249L-43.16764239920303,542.7962808473967Z" fill="#3b6550" stroke="#3b6550"></path><path d="M-66.28556843381375,432.4589740228839L-43.16764239920303,542.7962808473967L50.316041400656104,501.9513930333778Z" fill="#497259" stroke="#497259"></path><path d="M-66.28556843381375,432.4589740228839L50.316041400656104,501.9513930333778L39.076282361056656,360.689875590615Z" fill="#759174" stroke="#759174"></path><path d="M39.076282361056656,360.689875590615L50.316041400656104,501.9513930333778L122.58093402022496,424.88303278107196Z" fill="#839a76" stroke="#839a76"></path><path d="M122.58093402022496,424.88303278107196L50.316041400656104,501.9513930333778L136.0829825536348,528.0976666114293Z" fill="#67855f" stroke="#67855f"></path><path d="M122.58093402022496,424.88303278107196L136.0829825536348,528.0976666114293L265.6316109118052,476.1421351041645Z" fill="#7b9368" stroke="#7b9368"></path><path d="M122.58093402022496,424.88303278107196L265.6316109118052,476.1421351041645L293.19820523960516,412.35761985881254Z" fill="#9daf80" stroke="#9daf80"></path><path d="M293.19820523960516,412.35761985881254L265.6316109118052,476.1421351041645L412.59458906715736,490.132439348381Z" fill="#9eb98c" stroke="#9eb98c"></path><path d="M293.19820523960516,412.35761985881254L412.59458906715736,490.132439348381L355.90590169420466,393.37178480345756Z" fill="#b2cda0" stroke="#b2cda0"></path><path d="M355.90590169420466,393.37178480345756L412.59458906715736,490.132439348381L446.6232763370499,373.95141183864325Z" fill="#c0dcb3" stroke="#c0dcb3"></path><path d="M446.6232763370499,373.95141183864325L412.59458906715736,490.132439348381L532.5495316646993,461.50204541161656Z" fill="#b7ddbb" stroke="#b7ddbb"></path><path d="M446.6232763370499,373.95141183864325L532.5495316646993,461.50204541161656L552.1301532094367,433.2767006312497Z" fill="#c7ebce" stroke="#c7ebce"></path><path d="M552.1301532094367,433.2767006312497L532.5495316646993,461.50204541161656L656.4955202979036,535.7324949000031Z" fill="#a1d8c5" stroke="#a1d8c5"></path><path d="M552.1301532094367,433.2767006312497L656.4955202979036,535.7324949000031L664.0752297407016,436.4011271321215Z" fill="#9fdcce" stroke="#9fdcce"></path><path d="M664.0752297407016,436.4011271321215L656.4955202979036,535.7324949000031L768.7196484650485,495.0056709465571Z" fill="#83d1c8" stroke="#83d1c8"></path><path d="M664.0752297407016,436.4011271321215L768.7196484650485,495.0056709465571L837.3254894348793,444.7274674777873Z" fill="#86d8cd" stroke="#86d8cd"></path><path d="M872.6469810004346,411.6625590645708L837.3254894348793,444.7274674777873L917.2497451910749,513.8019759161398Z" fill="#67c6bb" stroke="#67c6bb"></path><path d="M872.6469810004346,411.6625590645708L917.2497451910749,513.8019759161398L1026.0951527347788,421.1565569951199Z" fill="#5abdb2" stroke="#5abdb2"></path><path d="M872.6469810004346,411.6625590645708L1026.0951527347788,421.1565569951199L976.4798398478888,330.22485254565254Z" fill="#7cc6bf" stroke="#7cc6bf"></path><path d="M1026.0951527347788,421.1565569951199L917.2497451910749,513.8019759161398L1067.0432176976465,462.2092708130367Z" fill="#43aaa0" stroke="#43aaa0"></path><path d="M1026.0951527347788,421.1565569951199L1067.0432176976465,462.2092708130367L1180.9697533003055,406.3077450799756Z" fill="#4baa9f" stroke="#4baa9f"></path><path d="M1180.9697533003055,406.3077450799756L1067.0432176976465,462.2092708130367L1134.505661453586,532.2063371445984Z" fill="#349489" stroke="#349489"></path><path d="M1180.9697533003055,406.3077450799756L1134.505661453586,532.2063371445984L1295.5583088006824,550.8683536038734Z" fill="#217a70" stroke="#217a70"></path><path d="M1180.9697533003055,406.3077450799756L1295.5583088006824,550.8683536038734L1319.6675665839575,522.2536509856582Z" fill="#237267" stroke="#237267"></path><path d="M1180.9697533003055,406.3077450799756L1319.6675665839575,522.2536509856582L1220.4741054959595,335.9694712352939Z" fill="#4f9588" stroke="#4f9588"></path><path d="M1220.4741054959595,335.9694712352939L1319.6675665839575,522.2536509856582L1377.6592807238922,348.9318875968456Z" fill="#5b8c80" stroke="#5b8c80"></path><path d="M1377.6592807238922,348.9318875968456L1319.6675665839575,522.2536509856582L1462.3353633168153,496.46197631256655Z" fill="#3a7067" stroke="#3a7067"></path><path d="M1377.6592807238922,348.9318875968456L1462.3353633168153,496.46197631256655L1430.0419810321182,332.04540656646714Z" fill="#617d79" stroke="#617d79"></path><path d="M-43.16764239920303,542.7962808473967L-61.87099512433633,565.2089762734249L59.94292380055413,593.5576848033816Z" fill="#39533b" stroke="#39533b"></path><path d="M-43.16764239920303,542.7962808473967L59.94292380055413,593.5576848033816L50.316041400656104,501.9513930333778Z" fill="#456145" stroke="#456145"></path><path d="M50.316041400656104,501.9513930333778L59.94292380055413,593.5576848033816L136.0829825536348,528.0976666114293Z" fill="#526a48" stroke="#526a48"></path><path d="M136.0829825536348,528.0976666114293L59.94292380055413,593.5576848033816L179.40008369274437,620.426098795142Z" fill="#536039" stroke="#536039"></path><path d="M136.0829825536348,528.0976666114293L179.40008369274437,620.426098795142L227.3833252931945,599.0410172613338Z" fill="#5d683e" stroke="#5d683e"></path><path d="M136.0829825536348,528.0976666114293L227.3833252931945,599.0410172613338L265.6316109118052,476.1421351041645Z" fill="#6d8155" stroke="#6d8155"></path><path d="M265.6316109118052,476.1421351041645L227.3833252931945,599.0410172613338L375.6731462548487,572.0175331551582Z" fill="#788a5d" stroke="#788a5d"></path><path d="M265.6316109118052,476.1421351041645L375.6731462548487,572.0175331551582L412.59458906715736,490.132439348381Z" fill="#86a87e" stroke="#86a87e"></path><path d="M412.59458906715736,490.132439348381L375.6731462548487,572.0175331551582L489.3078205664642,636.3824876816943Z" fill="#84a27d" stroke="#84a27d"></path><path d="M412.59458906715736,490.132439348381L489.3078205664642,636.3824876816943L532.5495316646993,461.50204541161656Z" fill="#90b99a" stroke="#90b99a"></path><path d="M532.5495316646993,461.50204541161656L489.3078205664642,636.3824876816943L656.4955202979036,535.7324949000031Z" fill="#8ebba6" stroke="#8ebba6"></path><path d="M656.4955202979036,535.7324949000031L489.3078205664642,636.3824876816943L637.4009659723379,644.1358478018083Z" fill="#7aa493" stroke="#7aa493"></path><path d="M656.4955202979036,535.7324949000031L637.4009659723379,644.1358478018083L745.633676610887,580.1317238877527Z" fill="#6faba3" stroke="#6faba3"></path><path d="M656.4955202979036,535.7324949000031L745.633676610887,580.1317238877527L768.7196484650485,495.0056709465571Z" fill="#6fb9b1" stroke="#6fb9b1"></path><path d="M768.7196484650485,495.0056709465571L745.633676610887,580.1317238877527L812.244676311966,606.6615065885708Z" fill="#5caaa1" stroke="#5caaa1"></path><path d="M768.7196484650485,495.0056709465571L812.244676311966,606.6615065885708L917.2497451910749,513.8019759161398Z" fill="#51aba1" stroke="#51aba1"></path><path d="M768.7196484650485,495.0056709465571L917.2497451910749,513.8019759161398L837.3254894348793,444.7274674777873Z" fill="#5fc0b5" stroke="#5fc0b5"></path><path d="M917.2497451910749,513.8019759161398L812.244676311966,606.6615065885708L920.0263772928156,657.4939075182192Z" fill="#378c82" stroke="#378c82"></path><path d="M917.2497451910749,513.8019759161398L920.0263772928156,657.4939075182192L1049.2478042282164,571.6493545123376Z" fill="#268178" stroke="#268178"></path><path d="M917.2497451910749,513.8019759161398L1049.2478042282164,571.6493545123376L1067.0432176976465,462.2092708130367Z" fill="#2a9289" stroke="#2a9289"></path><path d="M1067.0432176976465,462.2092708130367L1049.2478042282164,571.6493545123376L1134.505661453586,532.2063371445984Z" fill="#1b837a" stroke="#1b837a"></path><path d="M1134.505661453586,532.2063371445984L1049.2478042282164,571.6493545123376L1146.2262463965453,645.0152364233509Z" fill="#0f665c" stroke="#0f665c"></path><path d="M1134.505661453586,532.2063371445984L1146.2262463965453,645.0152364233509L1295.5583088006824,550.8683536038734Z" fill="#105c51" stroke="#105c51"></path><path d="M1319.6675665839575,522.2536509856582L1295.5583088006824,550.8683536038734L1324.4960315036587,538.865627986379Z" fill="#18584c" stroke="#18584c"></path><path d="M1319.6675665839575,522.2536509856582L1324.4960315036587,538.865627986379L1360.5700709926896,569.2190806264989Z" fill="#175246" stroke="#175246"></path><path d="M1319.6675665839575,522.2536509856582L1360.5700709926896,569.2190806264989L1462.3353633168153,496.46197631256655Z" fill="#1a5148" stroke="#1a5148"></path><path d="M1324.4960315036587,538.865627986379L1295.5583088006824,550.8683536038734L1360.5700709926896,569.2190806264989Z" fill="#155044" stroke="#155044"></path><path d="M1462.3353633168153,496.46197631256655L1360.5700709926896,569.2190806264989L1499.9540483974852,614.9460340407677Z" fill="#13403c" stroke="#13403c"></path><path d="M-61.87099512433633,565.2089762734249L-75.42335660662502,864.9132227734663L-32.04933204455301,662.5467964797281Z" fill="#1f2008" stroke="#1f2008"></path><path d="M-61.87099512433633,565.2089762734249L-32.04933204455301,662.5467964797281L19.07128460239619,660.3388801310211Z" fill="#283c23" stroke="#283c23"></path><path d="M-61.87099512433633,565.2089762734249L19.07128460239619,660.3388801310211L59.94292380055413,593.5576848033816Z" fill="#34482c" stroke="#34482c"></path><path d="M59.94292380055413,593.5576848033816L19.07128460239619,660.3388801310211L179.40008369274437,620.426098795142Z" fill="#404c27" stroke="#404c27"></path><path d="M179.40008369274437,620.426098795142L19.07128460239619,660.3388801310211L120.11324630118906,760.6031458708458Z" fill="#403a12" stroke="#403a12"></path><path d="M179.40008369274437,620.426098795142L120.11324630118906,760.6031458708458L293.40017476817593,796.2120449100621Z" fill="#52390d" stroke="#52390d"></path><path d="M179.40008369274437,620.426098795142L293.40017476817593,796.2120449100621L317.9970608605072,671.7492110282183Z" fill="#5f4f1d" stroke="#5f4f1d"></path><path d="M179.40008369274437,620.426098795142L317.9970608605072,671.7492110282183L227.3833252931945,599.0410172613338Z" fill="#5d6333" stroke="#5d6333"></path><path d="M227.3833252931945,599.0410172613338L317.9970608605072,671.7492110282183L375.6731462548487,572.0175331551582Z" fill="#6b7648" stroke="#6b7648"></path><path d="M375.6731462548487,572.0175331551582L317.9970608605072,671.7492110282183L489.3078205664642,636.3824876816943Z" fill="#72875d" stroke="#72875d"></path><path d="M489.3078205664642,636.3824876816943L317.9970608605072,671.7492110282183L411.0211893846281,754.2851741565391Z" fill="#707449" stroke="#707449"></path><path d="M489.3078205664642,636.3824876816943L411.0211893846281,754.2851741565391L503.53898640954867,672.7514096046798Z" fill="#757d59" stroke="#757d59"></path><path d="M489.3078205664642,636.3824876816943L503.53898640954867,672.7514096046798L637.4009659723379,644.1358478018083Z" fill="#7b947a" stroke="#7b947a"></path><path d="M637.4009659723379,644.1358478018083L503.53898640954867,672.7514096046798L592.4456771160476,762.2894210624509Z" fill="#75866f" stroke="#75866f"></path><path d="M637.4009659723379,644.1358478018083L592.4456771160476,762.2894210624509L680.988185859751,734.0002665249631Z" fill="#6a7e6e" stroke="#6a7e6e"></path><path d="M637.4009659723379,644.1358478018083L680.988185859751,734.0002665249631L745.633676610887,580.1317238877527Z" fill="#609388" stroke="#609388"></path><path d="M745.633676610887,580.1317238877527L680.988185859751,734.0002665249631L812.244676311966,606.6615065885708Z" fill="#519186" stroke="#519186"></path><path d="M812.244676311966,606.6615065885708L680.988185859751,734.0002665249631L842.4067480606027,776.009588604793Z" fill="#487768" stroke="#487768"></path><path d="M812.244676311966,606.6615065885708L842.4067480606027,776.009588604793L862.3127187113278,763.5986742610112Z" fill="#386a5b" stroke="#386a5b"></path><path d="M812.244676311966,606.6615065885708L862.3127187113278,763.5986742610112L920.0263772928156,657.4939075182192Z" fill="#317365" stroke="#317365"></path><path d="M920.0263772928156,657.4939075182192L862.3127187113278,763.5986742610112L967.9796802252531,670.3023796668276Z" fill="#226153" stroke="#226153"></path><path d="M920.0263772928156,657.4939075182192L967.9796802252531,670.3023796668276L1049.2478042282164,571.6493545123376Z" fill="#166b60" stroke="#166b60"></path><path d="M1049.2478042282164,571.6493545123376L967.9796802252531,670.3023796668276L1030.1496270205826,714.1937735630199Z" fill="#0d5e53" stroke="#0d5e53"></path><path d="M1049.2478042282164,571.6493545123376L1030.1496270205826,714.1937735630199L1146.2262463965453,645.0152364233509Z" fill="#02564b" stroke="#02564b"></path><path d="M1146.2262463965453,645.0152364233509L1030.1496270205826,714.1937735630199L1153.624798853416,660.198444200214Z" fill="#014639" stroke="#014639"></path><path d="M1146.2262463965453,645.0152364233509L1153.624798853416,660.198444200214L1295.5583088006824,550.8683536038734Z" fill="#054c3f" stroke="#054c3f"></path><path d="M1295.5583088006824,550.8683536038734L1153.624798853416,660.198444200214L1214.0867109084502,732.3549274727702Z" fill="#003e31" stroke="#003e31"></path><path d="M1295.5583088006824,550.8683536038734L1214.0867109084502,732.3549274727702L1349.7176241851412,743.5689374036156Z" fill="#002a1a" stroke="#002a1a"></path><path d="M1295.5583088006824,550.8683536038734L1349.7176241851412,743.5689374036156L1360.5700709926896,569.2190806264989Z" fill="#053527" stroke="#053527"></path><path d="M1360.5700709926896,569.2190806264989L1349.7176241851412,743.5689374036156L1447.3017213866115,696.0918014869094Z" fill="#001d11" stroke="#001d11"></path><path d="M1360.5700709926896,569.2190806264989L1447.3017213866115,696.0918014869094L1499.9540483974852,614.9460340407677Z" fill="#032822" stroke="#032822"></path><path d="M1499.9540483974852,614.9460340407677L1447.3017213866115,696.0918014869094L1457.9754361952655,791.7581034661271Z" fill="#000e05" stroke="#000e05"></path><path d="M-32.04933204455301,662.5467964797281L-75.42335660662502,864.9132227734663L81.40290279174224,840.3760996623896Z" fill="#281703" stroke="#281703"></path><path d="M-32.04933204455301,662.5467964797281L81.40290279174224,840.3760996623896L19.07128460239619,660.3388801310211Z" fill="#2f2203" stroke="#2f2203"></path><path d="M19.07128460239619,660.3388801310211L81.40290279174224,840.3760996623896L120.11324630118906,760.6031458708458Z" fill="#3a2104" stroke="#3a2104"></path><path d="M120.11324630118906,760.6031458708458L81.40290279174224,840.3760996623896L190.61018955428153,877.0002152305096Z" fill="#452805" stroke="#452805"></path><path d="M120.11324630118906,760.6031458708458L190.61018955428153,877.0002152305096L293.40017476817593,796.2120449100621Z" fill="#53350e" stroke="#53350e"></path><path d="M317.9970608605072,671.7492110282183L293.40017476817593,796.2120449100621L411.0211893846281,754.2851741565391Z" fill="#68522c" stroke="#68522c"></path><path d="M411.0211893846281,754.2851741565391L293.40017476817593,796.2120449100621L362.9273056378588,852.9363163630478Z" fill="#6a5530" stroke="#6a5530"></path><path d="M411.0211893846281,754.2851741565391L362.9273056378588,852.9363163630478L445.37112950347364,819.1203680238687Z" fill="#70613f" stroke="#70613f"></path><path d="M411.0211893846281,754.2851741565391L445.37112950347364,819.1203680238687L503.53898640954867,672.7514096046798Z" fill="#74684b" stroke="#74684b"></path><path d="M503.53898640954867,672.7514096046798L445.37112950347364,819.1203680238687L592.4456771160476,762.2894210624509Z" fill="#79715b" stroke="#79715b"></path><path d="M592.4456771160476,762.2894210624509L445.37112950347364,819.1203680238687L637.3031886736862,834.8502259235829Z" fill="#787464" stroke="#787464"></path><path d="M592.4456771160476,762.2894210624509L637.3031886736862,834.8502259235829L680.988185859751,734.0002665249631Z" fill="#6a756e" stroke="#6a756e"></path><path d="M680.988185859751,734.0002665249631L637.3031886736862,834.8502259235829L754.561624599155,829.6842472651042Z" fill="#5f7371" stroke="#5f7371"></path><path d="M680.988185859751,734.0002665249631L754.561624599155,829.6842472651042L842.4067480606027,776.009588604793Z" fill="#4d6c67" stroke="#4d6c67"></path><path d="M862.3127187113278,763.5986742610112L842.4067480606027,776.009588604793L921.023377913516,821.7219068622217Z" fill="#2e5a55" stroke="#2e5a55"></path><path d="M862.3127187113278,763.5986742610112L921.023377913516,821.7219068622217L967.9796802252531,670.3023796668276Z" fill="#22514d" stroke="#22514d"></path><path d="M967.9796802252531,670.3023796668276L921.023377913516,821.7219068622217L1030.1496270205826,714.1937735630199Z" fill="#154943" stroke="#154943"></path><path d="M1030.1496270205826,714.1937735630199L921.023377913516,821.7219068622217L1076.0393978608772,840.5956536508165Z" fill="#0e403c" stroke="#0e403c"></path><path d="M1030.1496270205826,714.1937735630199L1076.0393978608772,840.5956536508165L1214.0867109084502,732.3549274727702Z" fill="#012f2b" stroke="#012f2b"></path><path d="M1030.1496270205826,714.1937735630199L1214.0867109084502,732.3549274727702L1153.624798853416,660.198444200214Z" fill="#01382b" stroke="#01382b"></path><path d="M1214.0867109084502,732.3549274727702L1076.0393978608772,840.5956536508165L1129.7549120616168,867.8316715918481Z" fill="#012a25" stroke="#012a25"></path><path d="M1214.0867109084502,732.3549274727702L1129.7549120616168,867.8316715918481L1276.2734546139836,806.1872606747784Z" fill="#001f1a" stroke="#001f1a"></path><path d="M1214.0867109084502,732.3549274727702L1276.2734546139836,806.1872606747784L1349.7176241851412,743.5689374036156Z" fill="#00140d" stroke="#00140d"></path><path d="M1349.7176241851412,743.5689374036156L1276.2734546139836,806.1872606747784L1356.4575345255435,786.0380913875997Z" fill="#000d05" stroke="#000d05"></path><path d="M1349.7176241851412,743.5689374036156L1356.4575345255435,786.0380913875997L1457.9754361952655,791.7581034661271Z" fill="#000300" stroke="#000300"></path><path d="M1349.7176241851412,743.5689374036156L1457.9754361952655,791.7581034661271L1447.3017213866115,696.0918014869094Z" fill="#000000" stroke="#000000"></path><path d="M-75.42335660662502,864.9132227734663L190.61018955428153,877.0002152305096L81.40290279174224,840.3760996623896Z" fill="#382004" stroke="#382004"></path><path d="M190.61018955428153,877.0002152305096L1129.7549120616168,867.8316715918481L362.9273056378588,852.9363163630478Z" fill="#787464" stroke="#787464"></path><path d="M190.61018955428153,877.0002152305096L362.9273056378588,852.9363163630478L293.40017476817593,796.2120449100621Z" fill="#61441a" stroke="#61441a"></path><path d="M362.9273056378588,852.9363163630478L1129.7549120616168,867.8316715918481L637.3031886736862,834.8502259235829Z" fill="#5a716e" stroke="#5a716e"></path><path d="M362.9273056378588,852.9363163630478L637.3031886736862,834.8502259235829L445.37112950347364,819.1203680238687Z" fill="#766c53" stroke="#766c53"></path><path d="M637.3031886736862,834.8502259235829L1129.7549120616168,867.8316715918481L754.561624599155,829.6842472651042Z" fill="#38615b" stroke="#38615b"></path><path d="M754.561624599155,829.6842472651042L1129.7549120616168,867.8316715918481L921.023377913516,821.7219068622217Z" fill="#1d4e49" stroke="#1d4e49"></path><path d="M754.561624599155,829.6842472651042L921.023377913516,821.7219068622217L842.4067480606027,776.009588604793Z" fill="#38615b" stroke="#38615b"></path><path d="M921.023377913516,821.7219068622217L1129.7549120616168,867.8316715918481L1076.0393978608772,840.5956536508165Z" fill="#083a36" stroke="#083a36"></path><path d="M1129.7549120616168,867.8316715918481L1457.9754361952655,791.7581034661271L1276.2734546139836,806.1872606747784Z" fill="#00130c" stroke="#00130c"></path><path d="M1276.2734546139836,806.1872606747784L1457.9754361952655,791.7581034661271L1356.4575345255435,786.0380913875997Z" fill="#000700" stroke="#000700"></path></g></svg>